<?xml version="1.0" standalone="no"?>
<!DOCTYPE svg PUBLIC "-//W3C//DTD SVG 20010904//EN"
 "http://www.w3.org/TR/2001/REC-SVG-20010904/DTD/svg10.dtd">
<svg version="1.0" xmlns="http://www.w3.org/2000/svg"
 width="16.000000pt" height="16.000000pt" viewBox="0 0 16.000000 16.000000"
 preserveAspectRatio="xMidYMid meet">
<metadata>
Created by potrace 1.11, written by Peter Selinger 2001-2013
</metadata>
<g transform="translate(0.000000,16.000000) scale(0.003200,-0.003200)"
fill="#000000" stroke="none">
<path d="M3183 3947 c-39 -100 -182 -460 -317 -800 -135 -340 -246 -622 -246
-627 0 -39 -40 54 -229 531 l-215 540 -88 -223 c-48 -123 -92 -231 -98 -240
-5 -10 -10 -22 -10 -28 0 -6 -9 -29 -19 -53 -10 -23 -63 -153 -117 -289 -54
-137 -101 -245 -104 -240 -6 6 -75 177 -157 387 -19 50 -40 100 -46 113 l-10
22 -13 -27 c-7 -16 -55 -136 -108 -268 l-95 -240 -109 -3 -108 -3 -214 541
c-118 297 -217 540 -220 540 -3 0 -81 -192 -174 -428 -93 -235 -176 -445 -186
-467 -9 -22 -30 -72 -45 -112 l-28 -72 -108 -3 -108 -3 106 -268 c96 -238 123
-295 123 -255 0 7 46 128 102 269 l103 256 100 1 c55 1 105 -2 110 -6 6 -4 55
-119 109 -257 54 -137 104 -263 111 -280 7 -16 59 -146 115 -288 56 -142 104
-257 105 -255 1 2 50 123 109 271 58 147 154 387 212 535 59 147 108 268 109
270 1 2 49 -113 105 -255 57 -142 106 -261 110 -266 3 -4 46 93 95 215 48 123
97 244 107 270 l20 46 106 -1 107 -2 136 -340 c75 -187 172 -432 217 -544 l80
-204 21 48 c12 26 21 51 21 55 0 5 7 21 15 37 13 25 213 527 325 818 24 61 47
115 52 122 7 9 65 12 221 10 l212 -2 82 -205 c45 -113 142 -358 217 -544 l134
-339 15 34 c7 19 103 259 212 534 109 275 202 505 207 511 13 17 202 18 215 2
5 -7 56 -129 113 -271 56 -142 105 -256 107 -253 5 5 213 524 213 531 0 3 -48
5 -107 5 l-108 0 -124 313 c-67 171 -129 326 -136 342 -7 17 -47 119 -90 228
-44 108 -81 197 -84 197 -6 -1 -181 -441 -355 -887 -39 -100 -74 -183 -78
-183 -4 0 -9 10 -13 23 -3 12 -10 31 -15 42 -9 19 -502 1258 -577 1450 -19 50
-38 93 -42 97 -3 4 -38 -75 -78 -175z"/>
</g>
</svg>
